<svg width="32" height="32" viewBox="0 0 32 32"  xmlns="http://www.w3.org/2000/svg">
<path fill-rule="evenodd" clip-rule="evenodd" d="M2 7C2 5.34314 3.34315 4 5 4H27C28.6569 4 30 5.34315 30 7V25C30 26.6569 28.6569 28 27 28H5C3.34315 28 2 26.6569 2 25V7ZM5 6C4.44771 6 4 6.44772 4 7V25C4 25.5523 4.44772 26 5 26H27C27.5523 26 28 25.5523 28 25V7C28 6.44772 27.5523 6 27 6H5Z"/>
<path fill-rule="evenodd" clip-rule="evenodd" d="M2 11L30 11V13L2 13L2 11Z"/>
<path fill-rule="evenodd" clip-rule="evenodd" d="M14 11V28H12V11H14Z"/>
</svg>
